<svg aria-hidden="true" style="width:0;height:0;position:absolute;overflow:hidden" xmlns="http://www.w3.org/2000/svg"><defs><symbol id="icon-loader" viewBox="0 0 32 32"><path d="M3.594 3.1a5.061 5.061 0 0 0-1.613.675C1.412 4.15.743 4.913.45 5.512c-.481.981-.456.419-.438 8.719l.019 7.425.2.425c.381.8 1.194 1.444 2.025 1.619.356.075.362.075.4.325.075.45.45 1.137.825 1.512.419.425 1.075.756 1.612.825l.375.044.075.394c.244 1.225 1.119 2.044 2.362 2.206.331.038 4.056.056 11.188.044l10.688-.019.35-.144c.769-.306 1.35-.869 1.637-1.575l.137-.344.019-8.088c.012-5.344-.006-8.206-.05-8.438a2.695 2.695 0 0 0-2.625-2.194c-.219 0-.244-.019-.281-.206-.25-1.237-1.144-2.1-2.469-2.381-.137-.031-.175-.088-.238-.394-.194-.919-.844-1.656-1.831-2.069l-.4-.169-10-.013c-8.688-.006-10.056 0-10.438.081zm11.619 3.312c.144.569.969.612 1.169.056l.081-.219h1.2l.081.219c.044.119.137.256.212.294.106.063 1.137.088 4.331.112l4.188.031.375.188c.381.194.681.544.825.963l.069.194h-9.95c-10.813 0-10.287-.019-10.931.344-.388.213-.838.675-1.025 1.044-.35.688-.338.412-.338 8.256v7.25l-.244-.038c-.531-.069-.987-.419-1.231-.95l-.15-.313V8.28l.15-.319a1.97 1.97 0 0 1 .906-.925c.281-.131.375-.131 4.444-.162 3.162-.025 4.188-.05 4.294-.112.075-.037.169-.175.213-.294l.081-.219h.606c.6 0 .606 0 .644.162zm14.499 3.157c.319.088.8.569.9.906.056.194.075 1.544.075 5.456v5.194L29.3 20.081c-.769-.575-1.506-1.106-1.644-1.188-.469-.256-1.262-.288-1.788-.056-.125.05-1.012.669-1.969 1.369-.962.694-1.775 1.288-1.813 1.313-.038.019-1.531-1.475-3.456-3.456-3.894-4.019-3.681-3.844-4.694-3.844-.531 0-.625.019-.912.175-.231.131-4.787 4.075-6.138 5.313l-.138.131.013-4.656.019-4.65.138-.262c.162-.294.481-.575.781-.688.281-.1 21.65-.113 22.012-.012zm-15.443 5.956c.131.05 1.675 1.6 4.225 4.231C23.813 25.25 23.557 25 23.869 25a.63.63 0 0 0 .631-.637c0-.262-.05-.325-1.137-1.456l-.419-.438 1.413-1.031c2.025-1.475 2.063-1.5 2.325-1.5.3 0 .438.087 2.35 1.531l1.663 1.25-.019 2c-.019 1.913-.025 2.012-.156 2.25-.169.319-.425.563-.719.681-.206.087-1.413.1-11.081.1s-10.875-.012-11.081-.1a1.46 1.46 0 0 1-.719-.681c-.131-.244-.138-.325-.156-2.844l-.019-2.594 3.413-3.012c1.881-1.656 3.481-3.025 3.55-3.037.262-.05.363-.044.563.044z"/><path d="M23.462 12.156c-2.106.662-2.581 3.4-.819 4.7 1.194.875 2.919.594 3.744-.613 1.05-1.531.337-3.55-1.444-4.094-.35-.106-1.137-.106-1.481.006zm1.419 1.332c1.031.537.969 2.031-.1 2.519-.894.413-1.969-.294-1.969-1.287 0-1.063 1.119-1.731 2.069-1.231z"/></symbol></defs></svg>