<svg aria-hidden="true" style="width:0;height:0;position:absolute;overflow:hidden" xmlns="http://www.w3.org/2000/svg"><defs><symbol id="icon-loader" viewBox="0 0 32 32"><path fill="#333" style="fill:var(--color1,#333)" d="M24.152 15.74v.003h-2.736v3.836h2.736v.003l3.517 2.587v-9.267zM7.666 16.986H4.489A1.451 1.451 0 0 0 3.1 15.944h-.193v5.452H3.1a1.45 1.45 0 0 0 1.376-1.001h3.189v-3.41z"/><path fill="#333" style="fill:var(--color1,#333)" d="M20.79 22.959H7.167a1.076 1.076 0 0 1-1.076-1.076v-8.84c0-.594.482-1.076 1.076-1.076H20.79c.594 0 1.076.482 1.076 1.076v8.84c0 .594-.482 1.076-1.076 1.076z"/><path fill="#666" style="fill:var(--color2,#666);stroke:var(--color1,#333)" stroke="#333" stroke-miterlimit="10" stroke-width=".96" d="M12.162 9.466a4.496 4.496 0 1 1-8.992 0 4.496 4.496 0 0 1 8.992 0zM23.063 7.342a4.943 4.943 0 1 1-9.885-.001 4.943 4.943 0 0 1 9.885.001z"/><path fill="#333" style="fill:var(--color1,#333)" d="M19.759 23.924H8.197a1.098 1.098 0 0 1-1.098-1.098v-.467c0-.607.492-1.098 1.098-1.098h11.562c.607 0 1.098.492 1.098 1.098v.467c0 .606-.492 1.098-1.098 1.098zM27.669 12.903h1.424v9.267h-1.424z"/><path fill="none" stroke="#333" style="stroke:var(--color1,#333)" stroke-linecap="round" stroke-miterlimit="10" stroke-width=".6" d="M12.224 19.598 7.534 29.6M15.521 19.598l4.69 10.002M13.978 20.794V29.6"/></symbol><symbol id="icon-popcorn" viewBox="0 0 32 32"><path fill="#f4e6c8" style="fill:var(--color1,#f4e6c8)" stroke-miterlimit="10" stroke-width=".56" stroke="#000" d="M26.848 8.576c0-.64-.416-1.184-.96-1.408-.224-.704-.8-1.28-1.536-1.44A2.066 2.066 0 0 0 22.304 4c-.928 0-1.728.608-2.016 1.472a2.228 2.228 0 0 0-.8-.16c-.192 0-.384.032-.576.096a2.126 2.126 0 0 0-1.856-1.088c-.256 0-.48.032-.704.128a2.097 2.097 0 0 0-1.888-1.216c-1.12 0-2.016.864-2.08 1.952-.288-.128-.608-.224-.928-.224-.192 0-.352.032-.512.064a2.091 2.091 0 0 0-1.568-.736A2.11 2.11 0 0 0 7.264 6.4c0 .096 0 .224.032.32-.448 0-.864.16-1.216.416-.512.384-.864.992-.864 1.696s.32 1.312.864 1.696c.224.16.512.288.8.352h18.912c.128-.256.224-.576.256-.896.416-.256.8-.8.8-1.408z"/><path stroke-miterlimit="10" stroke-width=".56" d="M13.632 9.408c-.608-.608-.576-1.76.064-2.336s1.792-.48 2.336.192c.384.48.352 1.312-.096 1.76"/><path stroke-miterlimit="10" stroke-width=".56" d="M16.32 8c.288-.48.896-.704 1.44-.544.512.16.928.704.896 1.248"/><path fill="#f4e6c8" style="fill:var(--color1,#f4e6c8)" stroke-miterlimit="10" stroke-width=".56" stroke="#000" d="M24.32 5.728c-.288 0-2.336-.16-2.304 1.92"/><path fill="#e15c64" style="fill:var(--color2,#e15c64)" stroke-miterlimit="10" stroke-width=".56" stroke="#000" d="M11.712 28.8h-2.24a.934.934 0 0 1-.928-.832l-1.76-17.152h3.808l1.12 17.984z"/><path fill="#fff" style="fill:var(--color3,#fff)" stroke-miterlimit="10" stroke-width=".56" stroke="#000" d="M14.784 28.8h-3.072l-1.088-17.984H14.4z"/><path fill="#e15c64" style="fill:var(--color2,#e15c64)" stroke-miterlimit="10" stroke-width=".56" stroke="#000" d="M17.856 28.8h-3.072L14.4 10.816h3.808z"/><path fill="#fff" style="fill:var(--color3,#fff)" stroke-miterlimit="10" stroke-width=".56" stroke="#000" d="M20.896 28.8h-3.04l.352-17.984h3.808z"/><path fill="#e15c64" style="fill:var(--color2,#e15c64)" stroke-miterlimit="10" stroke-width=".56" stroke="#000" d="M23.136 28.8h-2.24l1.088-17.984h3.808l-1.76 17.152a.882.882 0 0 1-.896.832z"/><path fill="#f7b26a" style="fill:var(--color4,#f7b26a)" stroke-miterlimit="10" stroke-width=".56" stroke="#000" d="M18.208 21.344h-3.84c-.896 0-1.6-.704-1.6-1.6v-1.44c0-.896.704-1.6 1.6-1.6h3.84c.896 0 1.6.704 1.6 1.6v1.44c0 .896-.704 1.6-1.6 1.6z"/></symbol><symbol id="icon-popcornLove" viewBox="0 0 32 32"><path d="M12.35 2.55c.35.35.75.5.9.35s-.1-.45-.6-.6c-.7-.3-.75-.25-.3.25zM17 3.2c0 .1.35.35.8.5.4.15.6.1.45-.2-.3-.5-1.25-.7-1.25-.3zM15.9 3.85c-.2 1.05-.15 3.05.1 2.85.15-.15.25-.95.25-1.75 0-1.35-.15-1.9-.35-1.1zM5.65 5.75c-.15.45-.15.9-.05 1.05.15.15.4-.2.55-.8.3-1.15-.05-1.35-.5-.25zM21 5.95c0 .3.2.65.5.8s.35-.05.2-.45c-.35-.9-.7-1.05-.7-.35zM25.25 6.05c-.2.3-.25.6-.1.75.1.15.35-.1.5-.55.35-.85.05-1-.4-.2zM13.5 6.5c0 .25.25.5.55.5.25 0 .35-.25.2-.5-.15-.3-.4-.5-.55-.5-.1 0-.2.2-.2.5zM9.35 6.85c-.25.4 3 .45 3.4.1.1-.15-.55-.3-1.5-.35-.9-.05-1.8.05-1.9.25zM18.65 7.6c-.3.35-.65 1-.8 1.4-.2.6-.3.6-.3-.05-.05-.45-.4-1-.85-1.15-1.2-.45-1.55-.35-.55.25.45.3.75.7.6.95-.15.2.1.5.5.65.45.2.95-.25 1.45-1.15.75-1.6.75-1.9-.05-.9zM6.85 9.35c-.1.25-.25 2.1-.3 4.15s-.2 3.85-.3 4.05c-.1.15-.25 2.5-.3 5.2-.05 3.65.1 4.95.6 5.3 1.05.65 7.45 2 9.55 2.05 2.8.05 4.2-1.15 5.15-4.35.4-1.55.65-3.05.45-3.35-.25-.35-.15-.4.3-.15.5.3.55.1.3-.95-.25-.95-.15-1.3.2-1.05.35.2.45-.15.25-1.1-.25-1-.2-1.2.15-.7s.5.15.45-1.3c-.1-1.9-.2-2-1.6-1.95-.8 0-1.45-.2-1.4-.45.1-.75-1.8-.6-3.55.25-1.35.65-1.5.65-2.65-.7-1.1-1.3-1.3-1.35-2.7-.8-1.3.55-1.6.5-2.65-.45-.6-.6-1.25-.9-1.4-.75-.2.15-.25-.5-.2-1.5.15-1.75.05-2.2-.35-1.45zm4.1 8.75c.35.35 1.55.65 2.7.65 1.8 0 2.1.15 2.25 1.15.2 1.35-2.9 4.6-4.4 4.6-1 0-2.75-1.95-3.25-3.6-.8-2.5 1.05-4.4 2.7-2.8z"/><path d="M11.35 10.1c-.15.5.2.7 1.35.75.9.05 1.15-.05.55-.2-.55-.15-1.15-.5-1.3-.75-.2-.3-.4-.2-.6.2zM20.25 11.3c-1.1 1-1.25 1.4-.75 1.85s.7.45.85-.05c.2-.5.4-.5 1.05 0 .7.6.7.55.1-.45-.55-.9-.6-1.2-.05-1.85 1-1.2.35-.95-1.2.5zm-.2 1.35c-.5.45-.55.4-.25-.3.15-.5.45-.75.6-.6s0 .55-.35.9zM14.7 11.95c.2.25.05.55-.25.65-.35.1-.25.45.25.85.7.6.8.6.5-.2-.3-.7-.2-.8.35-.5.6.4.6.3 0-.4-.7-.9-1.3-1.15-.85-.4z"/><path d="M22.5 13.1c0 .45-.3.95-.6 1.05-.5.2-.5.3 0 .3.7.05 1.4-1.3.9-1.8-.15-.2-.3.05-.3.45zM23.8 13.9c-.1.2-.05.7.25 1.1.35.6.45.5.45-.4 0-1.15-.25-1.4-.7-.7z"/></symbol><symbol id="icon-popcorneyes" viewBox="0 0 32 32"><path d="M15.431 1.625c-.563.094-1.188.519-1.463.987-.106.175-.119.175-.681.181-.344 0-.669.038-.819.094-.244.094-.256.087-.544-.112-.45-.306-.85-.419-1.412-.394-1.031.05-1.806.738-2.013 1.781-.075.375-.075.375-.375.481-.388.138-.919.625-1.156 1.05-.131.25-.181.438-.206.781-.025.45-.031.45-.3.638-.338.244-.606.606-.781 1.069-.106.275-.125.444-.106.819.037.594.194.963.619 1.406l.319.338-.169.206c-.206.238-.313.488-.406.894-.044.181-.45.938-1.106 2.05a82.246 82.246 0 0 0-1.156 1.988c-.106.212-.112.425-.1 3.506l.019 3.275.175.262c.094.144.288.337.431.431.256.175.263.175 1.5.194.731.012 1.237.044 1.237.081 0 .169.506 5.175.537 5.337.112.544.538 1.05 1.081 1.306.287.131.306.131 7.006.131 3.694 0 6.888-.012 7.094-.025s.575-.019.825-.012c.369.012.512-.012.788-.137a1.906 1.906 0 0 0 1.1-2.087c-.075-.406-.35-.881-.631-1.106-.106-.081-.244-.288-.319-.481-.15-.387-.163-1.137-.025-2.306l.075-.656 2.438-.063.281-.188a1.34 1.34 0 0 0 .456-.525l.169-.344v-3.156c0-2.956-.012-3.181-.119-3.412-.063-.137-.6-1.063-1.188-2.056-.637-1.075-1.069-1.875-1.069-1.969 0-.306-.344-.906-.7-1.219l-.337-.3.175-.35c.313-.644.331-1.519.044-2.088-.212-.412-.644-.831-1.056-1.013a3.394 3.394 0 0 1-.375-.188c0-.013.044-.144.094-.287.212-.606.056-1.456-.369-2.019-.206-.269-.712-.619-1.063-.731-.381-.125-1.012-.094-1.431.063l-.369.138-.225-.219c-.394-.381-.844-.569-1.425-.594-.481-.025-.512-.031-.587-.188-.394-.894-1.406-1.431-2.381-1.262zm.863 1.006c.363.138.762.675.769 1.031 0 .075.063.212.131.306.125.15.163.162.425.131.825-.112.969-.112 1.256.037.2.1.35.25.519.506.281.425.469.525.731.388.1-.05.2-.119.219-.156.025-.037.156-.125.294-.194.206-.106.344-.125.644-.106.656.044 1.094.45 1.144 1.081.038.463-.063.7-.456 1.106-.375.388-.413.525-.2.763.163.188.231.2.619.138.825-.131 1.488.431 1.488 1.262 0 .613-.419 1.262-.813 1.262-.206 0-.762.287-.962.494l-.181.188-.244-.213a2.004 2.004 0 0 0-2.663 0l-.244.213-.169-.175c-.669-.7-1.956-.7-2.744-.006l-.213.181-.181-.188c-.631-.656-1.887-.688-2.606-.056l-.275.244-.137-.144c-.219-.231-.719-.475-1.1-.537-.606-.1-1.262.1-1.694.506l-.188.181-.175-.181c-.275-.287-.85-.512-1.431-.563-.281-.025-.594-.094-.7-.144a1.235 1.235 0 0 1-.581-1.494c.119-.344.294-.537.681-.744.206-.106.4-.25.431-.313.037-.075.05-.287.025-.531-.088-.875.319-1.344 1.306-1.5.331-.05.412-.213.406-.763-.006-.394.012-.481.175-.744a1.194 1.194 0 0 1 1.037-.587c.375 0 .681.15 1.019.494.294.306.481.325.887.087.344-.2.875-.219 1.213-.05.438.231.738.087.869-.406.081-.306.319-.594.619-.75.25-.131.775-.163 1.05-.056zm-1.669 8.588c.206.106.412.338.494.55.044.106.069.681.069 1.381 0 1.338.044 1.55.319 1.675.169.075.181.1.181.45v.363l-.256-.225c-.137-.125-.319-.256-.406-.287-.088-.037-.531-.063-.994-.063s-.85-.025-.869-.05c-.012-.025-.037-.769-.05-1.644l-.019-1.594.175-.231c.338-.444.869-.569 1.356-.325zm6.344.081c.462.381.488.531.375 2.113-.05.719-.094 1.381-.094 1.475v.175h-2.081l.044-1.488c.025-.813.075-1.588.106-1.719.087-.325.425-.65.756-.713.313-.069.712.006.894.156zm-12.55-.069c.119.056.287.213.381.344.15.231.162.319.262 1.819.056.869.088 1.594.063 1.625-.019.025-.5.037-1.069.031l-1.025-.019-.119-1.25c-.169-1.744-.094-2.144.456-2.513.256-.175.731-.194 1.05-.037zM25.8 14.5l.313.531-.375.019c-.206.012-.394.006-.406-.012-.019-.019-.012-.287.012-.6.025-.319.069-.55.094-.519.025.025.194.287.363.581zm-19.775-.025c.025.294.031.55.019.569-.019.012-.2.019-.406.006l-.381-.019.319-.55c.175-.3.338-.544.362-.544s.063.244.088.537zm8.794 1.688c.475.512 1.131.525 1.694.031l.225-.194h9.85l.144.137.144.131v3.038c0 3.025 0 3.031-.137 3.175l-.131.144h-9.706l-.169-.525c-.094-.288-.231-.6-.3-.688-.387-.494-1.188-.456-1.537.063-.063.094-.188.381-.275.644l-.162.475-4.85.019c-4.787.012-4.856.012-4.981-.113-.119-.119-.125-.206-.125-3.188v-3.056l.138-.131C4.779 16 4.835 16 9.722 16h4.95l.15.163zm.869 7.331v1.438l-.169.081c-.319.15-.331.238-.331 2.406v2.019h-1.563v-.488c0-.512-.094-3.262-.156-4.594l-.037-.794h.775c.938 0 .944-.006 1.231-.894.106-.331.206-.606.219-.606.019 0 .031.644.031 1.431zm-5.969.143c.012.044.1 1.206.188 2.581s.175 2.663.194 2.856l.037.363H9.55c-.613 0-.756-.05-1-.344-.144-.169-.144-.181-.394-2.719-.119-1.219-.231-2.35-.256-2.519l-.037-.294h.912c.675 0 .925.019.944.075zm10.937.344c-.019.238-.063.825-.094 1.319l-.063.894-.256.337c-.25.337-.431.825-.431 1.194 0 .281.163.788.344 1.05a.884.884 0 0 1 .156.444v.219h-1.625v-.331c0-.425.113-3.65.163-4.719l.038-.825h1.806l-.038.419zm2.588 2.425c.2.188.262.294.331.606.075.344.113.413.363.6.387.3.512.512.512.894a.926.926 0 0 1-.931.931c-.337 0-.575-.119-.794-.387-.35-.438-.35-.438-.738-.394-.288.031-.419.012-.637-.087-.794-.35-.744-1.413.075-1.762.156-.069.406-.238.556-.369.25-.231.294-.25.644-.25.344 0 .394.019.619.219z"/><path d="M11.294 5.588a1.84 1.84 0 0 1-.575.194c-.512.063-.581.175-.581.956-.006.769.044.844.6.919.738.094.856.025.95-.563.037-.244.119-.438.238-.588.363-.456.4-.638.194-.906-.169-.213-.494-.219-.825-.013zM17.181 6.256c-.113.044-.212.175-.337.438a1.437 1.437 0 0 1-.475.606c-.438.325-.475.556-.144.944.244.294.462.262.875-.113.413-.381.762-.481 1.294-.369.538.112.675-.019.831-.806.031-.162.006-.231-.119-.356-.15-.15-.2-.162-.65-.15-.331.006-.544-.019-.675-.088-.281-.144-.419-.169-.6-.106zM6 16.762c-.325.169-.487.375-.563.712-.031.131-.063.962-.063 1.837s.031 1.706.063 1.837c.075.337.237.544.563.706l.275.144h3.588c3.387 0 3.594-.006 3.813-.119.594-.3.631-.462.631-2.569 0-2.119-.044-2.294-.65-2.569-.231-.106-.488-.119-3.813-.119H6.275L6 16.759zM17.719 16.744c-.3.137-.431.275-.563.587-.075.188-.094.544-.094 1.994 0 2 .025 2.125.475 2.462l.231.181 7.331.031.275-.144c.175-.094.331-.238.419-.394.137-.238.144-.294.144-2.144v-1.9l-.156-.269c-.256-.431-.525-.525-1.55-.525-.938 0-1.119.05-1.238.319l-.069.181h-.619c-.6 0-.625-.006-.681-.15-.125-.337-.2-.35-2-.35-1.475 0-1.681.012-1.906.119zM2.962 25.712a2.53 2.53 0 0 0-.538.344c-.188.163-.275.194-.538.194-.694 0-1.381.45-1.712 1.106-.212.438-.206 1.106.019 1.587.325.694.912 1.081 1.681 1.094.363.012.55.05.838.188 1.156.531 2.456-.169 2.663-1.444.037-.244.112-.575.162-.744.369-1.269-.537-2.475-1.869-2.475-.275 0-.481.044-.706.15zm1.157.882c.475.244.662.731.475 1.25a2.427 2.427 0 0 0-.125.631c-.019.381-.175.675-.456.85-.256.156-.681.163-.95.006-.563-.325-.55-.319-.85-.256-.387.081-.675.019-.931-.206a.936.936 0 0 1-.087-1.337c.25-.281.519-.363 1.019-.313.425.05.487.019.731-.325s.806-.494 1.175-.3zM27.781 25.688c-.631.25-1.106.9-1.188 1.619a5.041 5.041 0 0 1-.131.656c-.2.706-.025 1.369.506 1.887.712.7 1.831.731 2.575.069.206-.181.281-.212.569-.219 1.387-.025 2.256-1.4 1.7-2.688-.281-.656-.956-1.087-1.719-1.1-.331-.006-.512-.044-.75-.163-.425-.212-1.119-.238-1.563-.063zm1.138.925c.106.056.269.163.363.225.144.106.2.113.488.044.538-.119.981.075 1.194.519.056.119.1.294.1.394-.006.294-.219.675-.469.831-.206.125-.281.137-.706.1l-.475-.038-.281.306c-.356.381-.488.444-.863.444-.394 0-.681-.175-.831-.519-.156-.337-.156-.462.006-.869.069-.175.113-.381.094-.456-.044-.181.063-.544.225-.75.262-.331.788-.438 1.156-.231z"/></symbol></defs></svg>