<svg aria-hidden="true" style="position: absolute; width: 0; height: 0; overflow: hidden;" version="1.1" xmlns="http://www.w3.org/2000/svg" xmlns:xlink="http://www.w3.org/1999/xlink">
<defs>
<symbol id="icon-loader" viewBox="0 0 32 32">
<path d="M3.594 3.1c-0.55 0.119-1.156 0.375-1.613 0.675-0.569 0.375-1.238 1.138-1.531 1.737-0.481 0.981-0.456 0.419-0.438 8.719l0.019 7.425 0.2 0.425c0.381 0.8 1.194 1.444 2.025 1.619 0.356 0.075 0.362 0.075 0.4 0.325 0.075 0.45 0.45 1.137 0.825 1.512 0.419 0.425 1.075 0.756 1.612 0.825l0.375 0.044 0.075 0.394c0.244 1.225 1.119 2.044 2.362 2.206 0.331 0.038 4.056 0.056 11.188 0.044l10.688-0.019 0.35-0.144c0.769-0.306 1.35-0.869 1.637-1.575l0.137-0.344 0.019-8.088c0.012-5.344-0.006-8.206-0.050-8.438-0.231-1.256-1.35-2.194-2.625-2.194-0.219 0-0.244-0.019-0.281-0.206-0.25-1.237-1.144-2.1-2.469-2.381-0.137-0.031-0.175-0.088-0.238-0.394-0.194-0.919-0.844-1.656-1.831-2.069l-0.4-0.169-10-0.013c-8.688-0.006-10.056 0-10.438 0.081zM15.213 6.412c0.144 0.569 0.969 0.612 1.169 0.056l0.081-0.219h1.2l0.081 0.219c0.044 0.119 0.137 0.256 0.212 0.294 0.106 0.063 1.137 0.088 4.331 0.112l4.188 0.031 0.375 0.188c0.381 0.194 0.681 0.544 0.825 0.963l0.069 0.194h-9.95c-10.813 0-10.287-0.019-10.931 0.344-0.388 0.213-0.838 0.675-1.025 1.044-0.35 0.688-0.338 0.412-0.338 8.256v7.25l-0.244-0.038c-0.531-0.069-0.987-0.419-1.231-0.95l-0.15-0.313v-15.563l0.15-0.319c0.181-0.394 0.531-0.75 0.906-0.925 0.281-0.131 0.375-0.131 4.444-0.162 3.162-0.025 4.188-0.050 4.294-0.112 0.075-0.037 0.169-0.175 0.213-0.294l0.081-0.219h0.606c0.6 0 0.606 0 0.644 0.162zM29.712 9.569c0.319 0.088 0.8 0.569 0.9 0.906 0.056 0.194 0.075 1.544 0.075 5.456v5.194l-1.387-1.044c-0.769-0.575-1.506-1.106-1.644-1.188-0.469-0.256-1.262-0.288-1.788-0.056-0.125 0.050-1.012 0.669-1.969 1.369-0.962 0.694-1.775 1.288-1.813 1.313-0.038 0.019-1.531-1.475-3.456-3.456-3.894-4.019-3.681-3.844-4.694-3.844-0.531 0-0.625 0.019-0.912 0.175-0.231 0.131-4.787 4.075-6.138 5.313l-0.138 0.131 0.013-4.656 0.019-4.65 0.138-0.262c0.162-0.294 0.481-0.575 0.781-0.688 0.281-0.1 21.65-0.113 22.012-0.012zM14.269 15.525c0.131 0.050 1.675 1.6 4.225 4.231 5.319 5.494 5.063 5.244 5.375 5.244 0.35 0 0.631-0.281 0.631-0.637 0-0.262-0.050-0.325-1.137-1.456l-0.419-0.438 1.413-1.031c2.025-1.475 2.063-1.5 2.325-1.5 0.3 0 0.438 0.087 2.35 1.531l1.663 1.25-0.019 2c-0.019 1.913-0.025 2.012-0.156 2.25-0.169 0.319-0.425 0.563-0.719 0.681-0.206 0.087-1.413 0.1-11.081 0.1s-10.875-0.012-11.081-0.1c-0.294-0.119-0.55-0.363-0.719-0.681-0.131-0.244-0.138-0.325-0.156-2.844l-0.019-2.594 3.413-3.012c1.881-1.656 3.481-3.025 3.55-3.037 0.262-0.050 0.363-0.044 0.563 0.044z"></path>
<path d="M23.462 12.156c-2.106 0.662-2.581 3.4-0.819 4.7 1.194 0.875 2.919 0.594 3.744-0.613 1.050-1.531 0.337-3.55-1.444-4.094-0.35-0.106-1.137-0.106-1.481 0.006zM24.881 13.488c1.031 0.537 0.969 2.031-0.1 2.519-0.894 0.413-1.969-0.294-1.969-1.287 0-1.063 1.119-1.731 2.069-1.231z"></path>
</symbol>
</defs>
</svg>
