<svg aria-hidden="true" style="position: absolute; width: 0; height: 0; overflow: hidden;" version="1.1" xmlns="http://www.w3.org/2000/svg" xmlns:xlink="http://www.w3.org/1999/xlink">
<defs>
<symbol id="icon-loader" viewBox="0 0 32 32">
<path fill="#333" style="fill: var(--color1, #333)" d="M24.152 15.74v0.003h-2.736v3.836h2.736v0.003l3.517 2.587v-9.267z"></path>
<path fill="#333" style="fill: var(--color1, #333)" d="M7.666 16.986h-3.177c-0.179-0.601-0.73-1.042-1.389-1.042h-0.193v5.452h0.193c0.644 0 1.184-0.421 1.376-1.001h3.189v-3.41z"></path>
<path fill="#333" style="fill: var(--color1, #333)" d="M20.79 22.959h-13.623c-0.594 0-1.076-0.482-1.076-1.076v0-8.84c0-0.594 0.482-1.076 1.076-1.076v0h13.623c0.594 0 1.076 0.482 1.076 1.076v0 8.84c0 0.594-0.482 1.076-1.076 1.076v0z"></path>
<path fill="#666" style="fill: var(--color2, #666); stroke: var(--color1, #333)" stroke="#333" stroke-linejoin="miter" stroke-linecap="butt" stroke-miterlimit="10" stroke-width="0.96" d="M12.162 9.466c0 2.483-2.013 4.496-4.496 4.496s-4.496-2.013-4.496-4.496c0-2.483 2.013-4.496 4.496-4.496s4.496 2.013 4.496 4.496z"></path>
<path fill="#666" style="fill: var(--color2, #666); stroke: var(--color1, #333)" stroke="#333" stroke-linejoin="miter" stroke-linecap="butt" stroke-miterlimit="10" stroke-width="0.96" d="M23.063 7.342c0 2.729-2.213 4.942-4.942 4.942s-4.942-2.213-4.942-4.942c0-2.729 2.213-4.942 4.942-4.942s4.942 2.213 4.942 4.942z"></path>
<path fill="#333" style="fill: var(--color1, #333)" d="M19.759 23.924h-11.562c-0.607 0-1.098-0.492-1.098-1.098v0-0.467c0-0.607 0.492-1.098 1.098-1.098v0h11.562c0.607 0 1.098 0.492 1.098 1.098v0 0.467c-0 0.606-0.492 1.098-1.098 1.098h-0z"></path>
<path fill="#333" style="fill: var(--color1, #333)" d="M27.669 12.903h1.424v9.267h-1.424z"></path>
<path fill="none" stroke="#333" style="stroke: var(--color1, #333)" stroke-linejoin="miter" stroke-linecap="round" stroke-miterlimit="10" stroke-width="0.5995" d="M12.224 19.598l-4.69 10.002"></path>
<path fill="none" stroke="#333" style="stroke: var(--color1, #333)" stroke-linejoin="miter" stroke-linecap="round" stroke-miterlimit="10" stroke-width="0.5995" d="M15.521 19.598l4.69 10.002"></path>
<path fill="none" stroke="#333" style="stroke: var(--color1, #333)" stroke-linejoin="miter" stroke-linecap="round" stroke-miterlimit="10" stroke-width="0.5995" d="M13.978 20.794v8.806"></path>
</symbol>
<symbol id="icon-popcorn" viewBox="0 0 32 32">
<path fill="#f4e6c8" style="fill: var(--color1, #f4e6c8)" stroke-linejoin="miter" stroke-linecap="butt" stroke-miterlimit="10" stroke-width="0.56" stroke="#000" d="M26.848 8.576c0-0.64-0.416-1.184-0.96-1.408-0.224-0.704-0.8-1.28-1.536-1.44-0.16-0.992-1.024-1.728-2.048-1.728-0.928 0-1.728 0.608-2.016 1.472-0.256-0.096-0.512-0.16-0.8-0.16-0.192 0-0.384 0.032-0.576 0.096-0.352-0.64-1.056-1.088-1.856-1.088-0.256 0-0.48 0.032-0.704 0.128-0.32-0.704-1.056-1.216-1.888-1.216-1.12 0-2.016 0.864-2.080 1.952-0.288-0.128-0.608-0.224-0.928-0.224-0.192 0-0.352 0.032-0.512 0.064-0.384-0.448-0.96-0.736-1.568-0.736-1.152 0-2.112 0.928-2.112 2.112 0 0.096 0 0.224 0.032 0.32-0.448 0-0.864 0.16-1.216 0.416-0.512 0.384-0.864 0.992-0.864 1.696s0.32 1.312 0.864 1.696c0.224 0.16 0.512 0.288 0.8 0.352h18.912c0.128-0.256 0.224-0.576 0.256-0.896 0.416-0.256 0.8-0.8 0.8-1.408z"></path>
<path stroke-linejoin="miter" stroke-linecap="butt" stroke-miterlimit="10" stroke-width="0.56" d="M13.632 9.408c-0.608-0.608-0.576-1.76 0.064-2.336s1.792-0.48 2.336 0.192c0.384 0.48 0.352 1.312-0.096 1.76"></path>
<path stroke-linejoin="miter" stroke-linecap="butt" stroke-miterlimit="10" stroke-width="0.56" d="M16.32 8c0.288-0.48 0.896-0.704 1.44-0.544 0.512 0.16 0.928 0.704 0.896 1.248"></path>
<path fill="#f4e6c8" style="fill: var(--color1, #f4e6c8)" stroke-linejoin="miter" stroke-linecap="butt" stroke-miterlimit="10" stroke-width="0.56" stroke="#000" d="M24.32 5.728c-0.288 0-2.336-0.16-2.304 1.92"></path>
<path fill="#e15c64" style="fill: var(--color2, #e15c64)" stroke-linejoin="miter" stroke-linecap="butt" stroke-miterlimit="10" stroke-width="0.56" stroke="#000" d="M11.712 28.8h-2.24c-0.48 0-0.864-0.352-0.928-0.832l-1.76-17.152h3.808l1.12 17.984z"></path>
<path fill="#fff" style="fill: var(--color3, #fff)" stroke-linejoin="miter" stroke-linecap="butt" stroke-miterlimit="10" stroke-width="0.56" stroke="#000" d="M14.784 28.8h-3.072l-1.088-17.984h3.776z"></path>
<path fill="#e15c64" style="fill: var(--color2, #e15c64)" stroke-linejoin="miter" stroke-linecap="butt" stroke-miterlimit="10" stroke-width="0.56" stroke="#000" d="M17.856 28.8h-3.072l-0.384-17.984h3.808z"></path>
<path fill="#fff" style="fill: var(--color3, #fff)" stroke-linejoin="miter" stroke-linecap="butt" stroke-miterlimit="10" stroke-width="0.56" stroke="#000" d="M20.896 28.8h-3.040l0.352-17.984h3.808z"></path>
<path fill="#e15c64" style="fill: var(--color2, #e15c64)" stroke-linejoin="miter" stroke-linecap="butt" stroke-miterlimit="10" stroke-width="0.56" stroke="#000" d="M23.136 28.8h-2.24l1.088-17.984h3.808l-1.76 17.152c-0.032 0.48-0.416 0.832-0.896 0.832z"></path>
<path fill="#f7b26a" style="fill: var(--color4, #f7b26a)" stroke-linejoin="miter" stroke-linecap="butt" stroke-miterlimit="10" stroke-width="0.56" stroke="#000" d="M18.208 21.344h-3.84c-0.896 0-1.6-0.704-1.6-1.6v-1.44c0-0.896 0.704-1.6 1.6-1.6h3.84c0.896 0 1.6 0.704 1.6 1.6v1.44c0 0.896-0.704 1.6-1.6 1.6z"></path>
</symbol>
<symbol id="icon-popcornLove" viewBox="0 0 32 32">
<path d="M12.35 2.55c0.35 0.35 0.75 0.5 0.9 0.35s-0.1-0.45-0.6-0.6c-0.7-0.3-0.75-0.25-0.3 0.25z"></path>
<path d="M17 3.2c0 0.1 0.35 0.35 0.8 0.5 0.4 0.15 0.6 0.1 0.45-0.2-0.3-0.5-1.25-0.7-1.25-0.3z"></path>
<path d="M15.9 3.85c-0.2 1.050-0.15 3.050 0.1 2.85 0.15-0.15 0.25-0.95 0.25-1.75 0-1.35-0.15-1.9-0.35-1.1z"></path>
<path d="M5.65 5.75c-0.15 0.45-0.15 0.9-0.050 1.050 0.15 0.15 0.4-0.2 0.55-0.8 0.3-1.15-0.050-1.35-0.5-0.25z"></path>
<path d="M21 5.95c0 0.3 0.2 0.65 0.5 0.8s0.35-0.050 0.2-0.45c-0.35-0.9-0.7-1.050-0.7-0.35z"></path>
<path d="M25.25 6.050c-0.2 0.3-0.25 0.6-0.1 0.75 0.1 0.15 0.35-0.1 0.5-0.55 0.35-0.85 0.050-1-0.4-0.2z"></path>
<path d="M13.5 6.5c0 0.25 0.25 0.5 0.55 0.5 0.25 0 0.35-0.25 0.2-0.5-0.15-0.3-0.4-0.5-0.55-0.5-0.1 0-0.2 0.2-0.2 0.5z"></path>
<path d="M9.35 6.85c-0.25 0.4 3 0.45 3.4 0.1 0.1-0.15-0.55-0.3-1.5-0.35-0.9-0.050-1.8 0.050-1.9 0.25z"></path>
<path d="M18.65 7.6c-0.3 0.35-0.65 1-0.8 1.4-0.2 0.6-0.3 0.6-0.3-0.050-0.050-0.45-0.4-1-0.85-1.15-1.2-0.45-1.55-0.35-0.55 0.25 0.45 0.3 0.75 0.7 0.6 0.95-0.15 0.2 0.1 0.5 0.5 0.65 0.45 0.2 0.95-0.25 1.45-1.15 0.75-1.6 0.75-1.9-0.050-0.9z"></path>
<path d="M6.85 9.35c-0.1 0.25-0.25 2.1-0.3 4.15s-0.2 3.85-0.3 4.050c-0.1 0.15-0.25 2.5-0.3 5.2-0.050 3.65 0.1 4.95 0.6 5.3 1.050 0.65 7.45 2 9.55 2.050 2.8 0.050 4.2-1.15 5.15-4.35 0.4-1.55 0.65-3.050 0.45-3.35-0.25-0.35-0.15-0.4 0.3-0.15 0.5 0.3 0.55 0.1 0.3-0.95-0.25-0.95-0.15-1.3 0.2-1.050 0.35 0.2 0.45-0.15 0.25-1.1-0.25-1-0.2-1.2 0.15-0.7s0.5 0.15 0.45-1.3c-0.1-1.9-0.2-2-1.6-1.95-0.8 0-1.45-0.2-1.4-0.45 0.1-0.75-1.8-0.6-3.55 0.25-1.35 0.65-1.5 0.65-2.65-0.7-1.1-1.3-1.3-1.35-2.7-0.8-1.3 0.55-1.6 0.5-2.65-0.45-0.6-0.6-1.25-0.9-1.4-0.75-0.2 0.15-0.25-0.5-0.2-1.5 0.15-1.75 0.050-2.2-0.35-1.45zM10.95 18.1c0.35 0.35 1.55 0.65 2.7 0.65 1.8 0 2.1 0.15 2.25 1.15 0.2 1.35-2.9 4.6-4.4 4.6-1 0-2.75-1.95-3.25-3.6-0.8-2.5 1.050-4.4 2.7-2.8z"></path>
<path d="M11.35 10.1c-0.15 0.5 0.2 0.7 1.35 0.75 0.9 0.050 1.15-0.050 0.55-0.2-0.55-0.15-1.15-0.5-1.3-0.75-0.2-0.3-0.4-0.2-0.6 0.2z"></path>
<path d="M20.25 11.3c-1.1 1-1.25 1.4-0.75 1.85s0.7 0.45 0.85-0.050c0.2-0.5 0.4-0.5 1.050 0 0.7 0.6 0.7 0.55 0.1-0.45-0.55-0.9-0.6-1.2-0.050-1.85 1-1.2 0.35-0.95-1.2 0.5zM20.050 12.65c-0.5 0.45-0.55 0.4-0.25-0.3 0.15-0.5 0.45-0.75 0.6-0.6s0 0.55-0.35 0.9z"></path>
<path d="M14.7 11.95c0.2 0.25 0.050 0.55-0.25 0.65-0.35 0.1-0.25 0.45 0.25 0.85 0.7 0.6 0.8 0.6 0.5-0.2-0.3-0.7-0.2-0.8 0.35-0.5 0.6 0.4 0.6 0.3 0-0.4-0.7-0.9-1.3-1.15-0.85-0.4z"></path>
<path d="M22.5 13.1c0 0.45-0.3 0.95-0.6 1.050-0.5 0.2-0.5 0.3 0 0.3 0.7 0.050 1.4-1.3 0.9-1.8-0.15-0.2-0.3 0.050-0.3 0.45z"></path>
<path d="M23.8 13.9c-0.1 0.2-0.050 0.7 0.25 1.1 0.35 0.6 0.45 0.5 0.45-0.4 0-1.15-0.25-1.4-0.7-0.7z"></path>
</symbol>
<symbol id="icon-popcorneyes" viewBox="0 0 32 32">
<path d="M15.431 1.625c-0.563 0.094-1.188 0.519-1.463 0.987-0.106 0.175-0.119 0.175-0.681 0.181-0.344 0-0.669 0.038-0.819 0.094-0.244 0.094-0.256 0.087-0.544-0.112-0.45-0.306-0.85-0.419-1.412-0.394-1.031 0.050-1.806 0.738-2.013 1.781-0.075 0.375-0.075 0.375-0.375 0.481-0.388 0.138-0.919 0.625-1.156 1.050-0.131 0.25-0.181 0.438-0.206 0.781-0.025 0.45-0.031 0.45-0.3 0.638-0.338 0.244-0.606 0.606-0.781 1.069-0.106 0.275-0.125 0.444-0.106 0.819 0.037 0.594 0.194 0.963 0.619 1.406l0.319 0.338-0.169 0.206c-0.206 0.238-0.313 0.488-0.406 0.894-0.044 0.181-0.45 0.938-1.106 2.050-0.575 0.969-1.094 1.863-1.156 1.988-0.106 0.212-0.112 0.425-0.1 3.506l0.019 3.275 0.175 0.262c0.094 0.144 0.288 0.337 0.431 0.431 0.256 0.175 0.263 0.175 1.5 0.194 0.731 0.012 1.237 0.044 1.237 0.081 0 0.169 0.506 5.175 0.537 5.337 0.112 0.544 0.538 1.050 1.081 1.306 0.287 0.131 0.306 0.131 7.006 0.131 3.694 0 6.888-0.012 7.094-0.025s0.575-0.019 0.825-0.012c0.369 0.012 0.512-0.012 0.788-0.137 0.813-0.375 1.256-1.212 1.1-2.087-0.075-0.406-0.35-0.881-0.631-1.106-0.106-0.081-0.244-0.288-0.319-0.481-0.15-0.387-0.163-1.137-0.025-2.306l0.075-0.656 2.438-0.063 0.281-0.188c0.194-0.131 0.337-0.294 0.456-0.525l0.169-0.344v-3.156c0-2.956-0.012-3.181-0.119-3.412-0.063-0.137-0.6-1.063-1.188-2.056-0.637-1.075-1.069-1.875-1.069-1.969 0-0.306-0.344-0.906-0.7-1.219l-0.337-0.3 0.175-0.35c0.313-0.644 0.331-1.519 0.044-2.088-0.212-0.412-0.644-0.831-1.056-1.013-0.206-0.094-0.375-0.181-0.375-0.188 0-0.013 0.044-0.144 0.094-0.287 0.212-0.606 0.056-1.456-0.369-2.019-0.206-0.269-0.712-0.619-1.063-0.731-0.381-0.125-1.012-0.094-1.431 0.063l-0.369 0.138-0.225-0.219c-0.394-0.381-0.844-0.569-1.425-0.594-0.481-0.025-0.512-0.031-0.587-0.188-0.394-0.894-1.406-1.431-2.381-1.262zM16.294 2.631c0.363 0.138 0.762 0.675 0.769 1.031 0 0.075 0.063 0.212 0.131 0.306 0.125 0.15 0.163 0.162 0.425 0.131 0.825-0.112 0.969-0.112 1.256 0.037 0.2 0.1 0.35 0.25 0.519 0.506 0.281 0.425 0.469 0.525 0.731 0.388 0.1-0.050 0.2-0.119 0.219-0.156 0.025-0.037 0.156-0.125 0.294-0.194 0.206-0.106 0.344-0.125 0.644-0.106 0.656 0.044 1.094 0.45 1.144 1.081 0.038 0.463-0.063 0.7-0.456 1.106-0.375 0.388-0.413 0.525-0.2 0.763 0.163 0.188 0.231 0.2 0.619 0.138 0.825-0.131 1.488 0.431 1.488 1.262 0 0.613-0.419 1.262-0.813 1.262-0.206 0-0.762 0.287-0.962 0.494l-0.181 0.188-0.244-0.213c-0.788-0.675-1.875-0.675-2.663 0l-0.244 0.213-0.169-0.175c-0.669-0.7-1.956-0.7-2.744-0.006l-0.213 0.181-0.181-0.188c-0.631-0.656-1.887-0.688-2.606-0.056l-0.275 0.244-0.137-0.144c-0.219-0.231-0.719-0.475-1.1-0.537-0.606-0.1-1.262 0.1-1.694 0.506l-0.188 0.181-0.175-0.181c-0.275-0.287-0.85-0.512-1.431-0.563-0.281-0.025-0.594-0.094-0.7-0.144-0.531-0.281-0.781-0.919-0.581-1.494 0.119-0.344 0.294-0.537 0.681-0.744 0.206-0.106 0.4-0.25 0.431-0.313 0.037-0.075 0.050-0.287 0.025-0.531-0.088-0.875 0.319-1.344 1.306-1.5 0.331-0.050 0.412-0.213 0.406-0.763-0.006-0.394 0.012-0.481 0.175-0.744 0.231-0.375 0.606-0.587 1.037-0.587 0.375 0 0.681 0.15 1.019 0.494 0.294 0.306 0.481 0.325 0.887 0.087 0.344-0.2 0.875-0.219 1.213-0.050 0.438 0.231 0.738 0.087 0.869-0.406 0.081-0.306 0.319-0.594 0.619-0.75 0.25-0.131 0.775-0.163 1.050-0.056zM14.625 11.219c0.206 0.106 0.412 0.338 0.494 0.55 0.044 0.106 0.069 0.681 0.069 1.381 0 1.338 0.044 1.55 0.319 1.675 0.169 0.075 0.181 0.1 0.181 0.45v0.363l-0.256-0.225c-0.137-0.125-0.319-0.256-0.406-0.287-0.088-0.037-0.531-0.063-0.994-0.063s-0.85-0.025-0.869-0.050c-0.012-0.025-0.037-0.769-0.050-1.644l-0.019-1.594 0.175-0.231c0.338-0.444 0.869-0.569 1.356-0.325zM20.969 11.3c0.462 0.381 0.488 0.531 0.375 2.113-0.050 0.719-0.094 1.381-0.094 1.475v0.175h-2.081l0.044-1.488c0.025-0.813 0.075-1.588 0.106-1.719 0.087-0.325 0.425-0.65 0.756-0.713 0.313-0.069 0.712 0.006 0.894 0.156zM8.419 11.231c0.119 0.056 0.287 0.213 0.381 0.344 0.15 0.231 0.162 0.319 0.262 1.819 0.056 0.869 0.088 1.594 0.063 1.625-0.019 0.025-0.5 0.037-1.069 0.031l-1.025-0.019-0.119-1.25c-0.169-1.744-0.094-2.144 0.456-2.513 0.256-0.175 0.731-0.194 1.050-0.037zM25.8 14.5l0.313 0.531-0.375 0.019c-0.206 0.012-0.394 0.006-0.406-0.012-0.019-0.019-0.012-0.287 0.012-0.6 0.025-0.319 0.069-0.55 0.094-0.519 0.025 0.025 0.194 0.287 0.363 0.581zM6.025 14.475c0.025 0.294 0.031 0.55 0.019 0.569-0.019 0.012-0.2 0.019-0.406 0.006l-0.381-0.019 0.319-0.55c0.175-0.3 0.338-0.544 0.362-0.544s0.063 0.244 0.088 0.537zM14.819 16.163c0.475 0.512 1.131 0.525 1.694 0.031l0.225-0.194h9.85l0.144 0.137 0.144 0.131v3.038c0 3.025 0 3.031-0.137 3.175l-0.131 0.144h-9.706l-0.169-0.525c-0.094-0.288-0.231-0.6-0.3-0.688-0.387-0.494-1.188-0.456-1.537 0.063-0.063 0.094-0.188 0.381-0.275 0.644l-0.162 0.475-4.85 0.019c-4.787 0.012-4.856 0.012-4.981-0.113-0.119-0.119-0.125-0.206-0.125-3.188v-3.056l0.138-0.131c0.138-0.125 0.194-0.125 5.081-0.125h4.95l0.15 0.163zM15.688 23.494v1.438l-0.169 0.081c-0.319 0.15-0.331 0.238-0.331 2.406v2.019h-1.563v-0.488c0-0.512-0.094-3.262-0.156-4.594l-0.037-0.794h0.775c0.938 0 0.944-0.006 1.231-0.894 0.106-0.331 0.206-0.606 0.219-0.606 0.019 0 0.031 0.644 0.031 1.431zM9.719 23.637c0.012 0.044 0.1 1.206 0.188 2.581s0.175 2.663 0.194 2.856l0.037 0.363h-0.588c-0.613 0-0.756-0.050-1-0.344-0.144-0.169-0.144-0.181-0.394-2.719-0.119-1.219-0.231-2.35-0.256-2.519l-0.037-0.294h0.912c0.675 0 0.925 0.019 0.944 0.075zM20.656 23.981c-0.019 0.238-0.063 0.825-0.094 1.319l-0.063 0.894-0.256 0.337c-0.25 0.337-0.431 0.825-0.431 1.194 0 0.281 0.163 0.788 0.344 1.050 0.094 0.137 0.156 0.319 0.156 0.444v0.219h-1.625v-0.331c0-0.425 0.113-3.65 0.163-4.719l0.038-0.825h1.806l-0.038 0.419zM23.244 26.406c0.2 0.188 0.262 0.294 0.331 0.606 0.075 0.344 0.113 0.413 0.363 0.6 0.387 0.3 0.512 0.512 0.512 0.894 0 0.519-0.413 0.931-0.931 0.931-0.337 0-0.575-0.119-0.794-0.387-0.35-0.438-0.35-0.438-0.738-0.394-0.288 0.031-0.419 0.012-0.637-0.087-0.794-0.35-0.744-1.413 0.075-1.762 0.156-0.069 0.406-0.238 0.556-0.369 0.25-0.231 0.294-0.25 0.644-0.25 0.344 0 0.394 0.019 0.619 0.219z"></path>
<path d="M11.294 5.588c-0.137 0.081-0.394 0.169-0.575 0.194-0.512 0.063-0.581 0.175-0.581 0.956-0.006 0.769 0.044 0.844 0.6 0.919 0.738 0.094 0.856 0.025 0.95-0.563 0.037-0.244 0.119-0.438 0.238-0.588 0.363-0.456 0.4-0.638 0.194-0.906-0.169-0.213-0.494-0.219-0.825-0.013z"></path>
<path d="M17.181 6.256c-0.113 0.044-0.212 0.175-0.337 0.438-0.125 0.275-0.256 0.438-0.475 0.606-0.438 0.325-0.475 0.556-0.144 0.944 0.244 0.294 0.462 0.262 0.875-0.113 0.413-0.381 0.762-0.481 1.294-0.369 0.538 0.112 0.675-0.019 0.831-0.806 0.031-0.162 0.006-0.231-0.119-0.356-0.15-0.15-0.2-0.162-0.65-0.15-0.331 0.006-0.544-0.019-0.675-0.088-0.281-0.144-0.419-0.169-0.6-0.106z"></path>
<path d="M6 16.762c-0.325 0.169-0.487 0.375-0.563 0.712-0.031 0.131-0.063 0.962-0.063 1.837s0.031 1.706 0.063 1.837c0.075 0.337 0.237 0.544 0.563 0.706l0.275 0.144h3.588c3.387 0 3.594-0.006 3.813-0.119 0.594-0.3 0.631-0.462 0.631-2.569 0-2.119-0.044-2.294-0.65-2.569-0.231-0.106-0.488-0.119-3.813-0.119h-3.569l-0.275 0.137z"></path>
<path d="M17.719 16.744c-0.3 0.137-0.431 0.275-0.563 0.587-0.075 0.188-0.094 0.544-0.094 1.994 0 2 0.025 2.125 0.475 2.462l0.231 0.181 7.331 0.031 0.275-0.144c0.175-0.094 0.331-0.238 0.419-0.394 0.137-0.238 0.144-0.294 0.144-2.144v-1.9l-0.156-0.269c-0.256-0.431-0.525-0.525-1.55-0.525-0.938 0-1.119 0.050-1.238 0.319l-0.069 0.181h-0.619c-0.6 0-0.625-0.006-0.681-0.15-0.125-0.337-0.2-0.35-2-0.35-1.475 0-1.681 0.012-1.906 0.119z"></path>
<path d="M2.962 25.712c-0.175 0.081-0.413 0.231-0.538 0.344-0.188 0.163-0.275 0.194-0.538 0.194-0.694 0-1.381 0.45-1.712 1.106-0.212 0.438-0.206 1.106 0.019 1.587 0.325 0.694 0.912 1.081 1.681 1.094 0.363 0.012 0.55 0.050 0.838 0.188 1.156 0.531 2.456-0.169 2.663-1.444 0.037-0.244 0.112-0.575 0.162-0.744 0.369-1.269-0.537-2.475-1.869-2.475-0.275 0-0.481 0.044-0.706 0.15zM4.119 26.594c0.475 0.244 0.662 0.731 0.475 1.25-0.063 0.169-0.119 0.456-0.125 0.631-0.019 0.381-0.175 0.675-0.456 0.85-0.256 0.156-0.681 0.163-0.95 0.006-0.563-0.325-0.55-0.319-0.85-0.256-0.387 0.081-0.675 0.019-0.931-0.206-0.4-0.35-0.438-0.938-0.087-1.337 0.25-0.281 0.519-0.363 1.019-0.313 0.425 0.050 0.487 0.019 0.731-0.325s0.806-0.494 1.175-0.3z"></path>
<path d="M27.781 25.688c-0.631 0.25-1.106 0.9-1.188 1.619-0.025 0.194-0.081 0.488-0.131 0.656-0.2 0.706-0.025 1.369 0.506 1.887 0.712 0.7 1.831 0.731 2.575 0.069 0.206-0.181 0.281-0.212 0.569-0.219 1.387-0.025 2.256-1.4 1.7-2.688-0.281-0.656-0.956-1.087-1.719-1.1-0.331-0.006-0.512-0.044-0.75-0.163-0.425-0.212-1.119-0.238-1.563-0.063zM28.919 26.613c0.106 0.056 0.269 0.163 0.363 0.225 0.144 0.106 0.2 0.113 0.488 0.044 0.538-0.119 0.981 0.075 1.194 0.519 0.056 0.119 0.1 0.294 0.1 0.394-0.006 0.294-0.219 0.675-0.469 0.831-0.206 0.125-0.281 0.137-0.706 0.1l-0.475-0.038-0.281 0.306c-0.356 0.381-0.488 0.444-0.863 0.444-0.394 0-0.681-0.175-0.831-0.519-0.156-0.337-0.156-0.462 0.006-0.869 0.069-0.175 0.113-0.381 0.094-0.456-0.044-0.181 0.063-0.544 0.225-0.75 0.262-0.331 0.788-0.438 1.156-0.231z"></path>
</symbol>
</defs>
</svg>
